<?xml version="1.0" encoding="UTF-8"?>
<!-- Created with Inkscape (http://www.inkscape.org/) -->
<svg id="svg2" width="6250" height="6250" version="1.1" viewBox="0 0 6250 6250" xmlns="http://www.w3.org/2000/svg"><g id="g8"><circle id="path238" cx="3132" cy="3e3" r="2199" style="fill:#ffffff"/><path id="path236" d="m3059 5460c-29-.88-74-3.2-104-5.5-532-39-1e3-253-1435-607-65-58-141-134-199-199-395-444-614-1e3-614-1613 0-539 180-1063 510-1488 64-83 123-149 201-227 54-54 88-86 140-130 439-375 998-581 1575-581 539 0 1063 180 1488 510 83 64 149 123 227 201 54 54 86 88 130 140 375 439 581 998 581 1575 0 539-180 1063-510 1488-64 83-123 149-201 227-54 54-88 86-140 130-458 391-1e3 598-1649 580zm174-251c124-5.8 229-18 346-40 45-8.4 55-11 99-23 211-59 416-149 606-264 50-31 103-66 134-89 178-134 340-296 474-474 23-31 58-83 89-134 116-190 205-395 264-606 12-44 15-54 23-99 22-118 34-221 40-349 1.6-34 1.6-161 0-195-6.1-128-18-231-40-349-8.4-45-11-55-23-99-59-211-149-416-264-606-31-50-66-103-89-134-134-178-296-340-474-474-31-23-83-58-134-89-190-116-395-205-606-264-44-12-54-15-99-23-118-22-221-34-349-40-34-1.6-161-1.6-195 0-128 6.1-231 18-349 40-45 8.4-55 11-99 23-211 59-416 149-606 264-50 31-103 66-134 89-178 134-340 296-474 474-23 31-58 83-89 134-116 190-205 395-264 606-12 44-15 54-23 99-22 118-34 221-40 349-1.6 34-1.6 161 0 195 6.1 128 18 231 40 349 8.4 45 11 55 23 99 59 211 149 416 264 606 31 50 66 103 89 134 134 178 296 340 474 474 31 23 83 58 134 89 190 116 395 205 606 264 46 13 56 15 110 25 125 23 242 35 377 39 22 .64 137-.36 159-1.4zm-268-595c-26-.92-49-2.4-79-5-12-1.1-23-1.9-24-1.9-1.7 0-1.8-33-1.8-721v-721h-649v-261h649v-259h-649v-261h649v-929h261v929h934v261h-934v259h934v261h-934v1215h4.8c5.7 0 52-4.4 69-6.5 112-14 213-39 316-78 234-88 439-238 590-433 122-158 204-334 246-530l1.3-6 121-.25c67-.14 121 .13 121 .61 0 1.7-7.9 43-11 59-40 186-116 367-223 526-56 84-114 155-185 227-78 79-156 144-249 205-91 61-185 110-288 152-210 85-439 125-668 117z" style="fill:#000000"/></g></svg>
