<?xml version="1.0" encoding="UTF-8" standalone="no"?>
<!-- Created with Inkscape (http://www.inkscape.org/) -->

<svg
   version="1.1"
   id="svg2"
   width="4851.9502"
   height="4851.9624"
   viewBox="0 0 4851.9502 4851.9624"
   sodipodi:docname="Lira_Origin_Token_Rev1.svg"
   inkscape:version="1.2 (dc2aedaf03, 2022-05-15)"
   inkscape:dataloss="true"
   xmlns:inkscape="http://www.inkscape.org/namespaces/inkscape"
   xmlns:sodipodi="http://sodipodi.sourceforge.net/DTD/sodipodi-0.dtd"
   xmlns="http://www.w3.org/2000/svg"
   xmlns:svg="http://www.w3.org/2000/svg">
  <defs
     id="defs6" />
  <sodipodi:namedview
     id="namedview4"
     pagecolor="#505050"
     bordercolor="#ffffff"
     borderopacity="1"
     inkscape:showpageshadow="0"
     inkscape:pageopacity="0"
     inkscape:pagecheckerboard="1"
     inkscape:deskcolor="#505050"
     showgrid="false"
     inkscape:zoom="0.13392"
     inkscape:cx="2844.9821"
     inkscape:cy="3128.7336"
     inkscape:window-width="1920"
     inkscape:window-height="1017"
     inkscape:window-x="-8"
     inkscape:window-y="-8"
     inkscape:window-maximized="1"
     inkscape:current-layer="g8" />
  <g
     inkscape:groupmode="layer"
     inkscape:label="Image"
     id="g8"
     transform="translate(-706.49188,-609.41901)">
    <circle
       style="fill:#ffffff;stroke-width:1.01029"
       id="path238"
       cx="3132.4673"
       cy="3027.927"
       r="2199.074" />
    <path
       style="fill:#000000"
       d="m 3058.7833,5460.2986 c -29.4704,-0.8788 -73.6792,-3.1892 -104.3161,-5.4517 -532.1904,-39.3012 -1036.877,-252.9273 -1434.967,-607.3996 -65.2127,-58.0675 -141.0186,-133.8734 -199.0861,-199.0861 C 925.24246,4204.5638 706.49186,3629.837 706.49186,3035.3942 c 0,-538.9182 179.6169,-1062.7501 510.39224,-1488.5 64.3362,-82.8088 122.616,-148.6573 200.5209,-226.5622 54.2372,-54.2373 88.137,-85.7131 140.0622,-130.0471 438.9128,-374.74668 997.7987,-580.86591 1575,-580.86591 538.9182,0 1062.7501,179.61688 1488.5,510.39211 82.8088,64.3362 148.6573,122.616 226.5622,200.5209 54.2373,54.2372 85.7131,88.137 130.0471,140.0622 374.7466,438.9128 580.8656,997.7987 580.8656,1575 0,538.9182 -179.617,1062.7501 -510.3918,1488.5 -64.3362,82.8088 -122.616,148.6573 -200.5209,226.5622 -54.2372,54.2373 -88.137,85.7131 -140.0622,130.0471 -458.1894,391.2052 -1045.5965,597.7795 -1648.6839,579.7951 z m 174.1839,-250.8758 c 123.9127,-5.7938 229.0892,-17.8145 346.105,-39.5565 45.4353,-8.442 55.1131,-10.693 99.395,-23.1182 210.9404,-59.1886 415.9168,-148.6034 605.5,-264.1313 50.2171,-30.6011 102.9918,-65.6366 133.5,-88.6264 177.9432,-134.0911 339.5051,-295.653 473.5962,-473.5962 22.9898,-30.5082 58.0253,-83.2829 88.6264,-133.5 115.5279,-189.5832 204.9427,-394.5596 264.1313,-605.5 12.425,-44.2819 14.676,-53.9597 23.118,-99.395 21.93,-118.0249 33.666,-221.1783 39.721,-349.105 1.618,-34.1902 1.618,-160.8098 0,-195 -6.055,-127.9267 -17.791,-231.0801 -39.721,-349.105 -8.442,-45.4353 -10.693,-55.1131 -23.118,-99.395 -59.1886,-210.9404 -148.6034,-415.9168 -264.1313,-605.5 -30.6011,-50.2171 -65.6366,-102.9918 -88.6264,-133.5 -134.0911,-177.9432 -295.653,-339.5051 -473.5962,-473.5962 -30.5082,-22.9898 -83.2829,-58.0253 -133.5,-88.6264 -189.5832,-115.5279 -394.5596,-204.94264 -605.5,-264.13124 -44.2819,-12.4252 -53.9597,-14.67618 -99.395,-23.11823 -118.0249,-21.92951 -221.1783,-33.66626 -349.105,-39.72102 -34.1902,-1.61822 -160.8098,-1.61822 -195,0 -127.9267,6.05476 -231.0801,17.79151 -349.105,39.72102 -45.4353,8.44205 -55.1131,10.69303 -99.395,23.11823 -210.9404,59.1886 -415.9168,148.60334 -605.5,264.13124 -50.2171,30.6011 -102.9918,65.6366 -133.5,88.6264 -177.9432,134.0911 -339.5051,295.653 -473.5962,473.5962 -22.9898,30.5082 -58.0253,83.2829 -88.6264,133.5 -115.5279,189.5832 -204.9427,394.5596 -264.1313,605.5 -12.4252,44.2819 -14.6762,53.9597 -23.11824,99.395 -21.9296,118.0249 -33.6663,221.1783 -39.7211,349.105 -1.6182,34.1902 -1.6182,160.8098 0,195 6.0548,127.9267 17.7915,231.0801 39.7211,349.105 8.44204,45.4353 10.69304,55.1131 23.11824,99.395 59.1886,210.9404 148.6034,415.9168 264.1313,605.5 30.6011,50.2171 65.6366,102.9918 88.6264,133.5 134.0911,177.9432 295.653,339.5051 473.5962,473.5962 30.5082,22.9898 83.2829,58.0253 133.5,88.6264 189.5832,115.5279 394.5596,204.9427 605.5,264.1313 45.9326,12.8884 56.2587,15.2377 110.4113,25.1202 125.4719,22.8976 241.9543,34.9218 377.0887,38.926 21.5508,0.6386 137.3775,-0.3605 159,-1.3715 z m -268,-595.111 c -26.3739,-0.9229 -49.2359,-2.3528 -79.4841,-4.9713 -12.3663,-1.0704 -23.2788,-1.9463 -24.25,-1.9463 -1.6862,0 -1.7659,-32.5306 -1.7659,-721 v -721 h -324.5 -324.5 v -130.5 -130.5 h 324.5 324.5 v -129.5 -129.5 h -324.5 -324.5 v -130.5 -130.5 h 324.5 324.5 v -464.5 -464.5 h 130.5 130.5 v 464.5 464.5 h 467 467 v 130.5 130.5 h -467 -467 v 129.5 129.5 h 467 467 v 130.5 130.5 h -467 -467 v 607.5 607.5 h 4.8152 c 5.7388,0 51.6888,-4.3788 68.6848,-6.5453 111.9176,-14.2662 213.2283,-39.2203 316.5,-77.958 233.7382,-87.6761 438.9605,-238.2669 589.6613,-432.6895 122.2472,-157.714 203.6906,-333.5646 245.6064,-530.3072 l 1.2782,-6 120.7271,-0.254 c 67.0751,-0.1411 120.727,0.1288 120.727,0.6075 0,1.6676 -7.9187,42.8396 -11.3758,59.1465 -39.5243,186.4348 -115.8063,366.8011 -222.6717,526.5 -56.3096,84.1487 -114.3221,155.2783 -185.4395,227.369 -77.536,78.5971 -156.3843,143.6495 -248.513,205.0314 -91.1346,60.7195 -185.1163,110.3442 -287.5,151.8074 -210.1008,85.0863 -438.8757,125.228 -668,117.2098 z"
       id="path236" />
  </g>
</svg>
