<?xml version="1.0" encoding="UTF-8" standalone="no"?>
<!-- Created with Inkscape (http://www.inkscape.org/) -->

<svg
   version="1.1"
   id="svg2"
   width="1500"
   height="1500"
   viewBox="0 0 1500 1500"
   xmlns="http://www.w3.org/2000/svg"
   xmlns:svg="http://www.w3.org/2000/svg">
  <defs
     id="defs6" />
  <g
     id="g8">
    <path
       style="fill:#000000;stroke:none"
       d="m 707,28.4244 c -18.49,2.4275 -37.406,2.4983 -56,4.7308 C 611.75,37.8674 572.915,46.3339 535,57.4244 379.694,102.853 242.24,203.604 149.72,336 c -170.9583,244.64 -169.6082,577.926 -0.695,823 37.16,53.91 82.344,103.08 132.975,144.58 86.206,70.65 185.967,119.27 294,145.79 82.749,20.32 171.648,24.44 256,13.35 76.461,-10.06 151.491,-31.35 221,-64.98 C 1291.65,1282.27 1449.39,1041.3 1460.96,777 1471.21,543.015 1361.31,312.381 1174,171.895 1099.3,115.871 1014.26,74.848 924,51.1157 876.258,38.5629 828.085,32.2725 779,28.9105 755.934,27.3307 730.001,25.4047 707,28.4244 m 7,65.8611 c 19.543,-2.3059 40.444,-0.1813 60,0.6752 46.889,2.0535 93.69,9.0203 139,21.6153 107.41,29.855 204.4,85.397 285,162.463 131.42,125.664 204.9,311.583 196.96,492.961 -4.36,99.548 -29.71,198.077 -77.27,286 -100.33,185.5 -290.16,317.28 -500.69,339.83 -92.244,9.89 -185.207,1.74 -274,-25.86 -60.494,-18.79 -117.408,-47.56 -170,-82.64 C 188.621,1166.35 77.355,945.164 87.0394,724 90.8276,637.487 110.906,554.114 146.139,475 178.483,402.373 226.544,333.979 284,279.039 369.882,196.918 475.257,138.324 591,110.884 631.868,101.196 672.632,99.1665 714,94.2855 M 605,284 v 154 41 c 0,4.715 1.485,12.597 -1.028,16.775 -4.977,8.276 -28.164,12.686 -36.972,16.033 -34.679,13.178 -69.255,26.623 -104,39.616 -10.687,3.997 -21.324,8.126 -32,12.152 -3.06,1.154 -9.276,2.251 -10.596,5.699 -1.976,5.16 4.807,17.683 6.649,22.725 6.903,18.891 15.312,38.432 19.947,58 L 513,625.424 604,591 c 4.102,17.23 1,38.302 1,56 0,5.433 2.001,15.911 -1.028,20.606 -2.41,3.737 -9.113,4.757 -12.972,6.394 -12.743,5.405 -25.994,9.954 -39,14.695 -29.497,10.752 -58.814,22.283 -88,33.855 -14.792,5.865 -30.939,9.962 -45,17.45 l 28,81 39,-13.95 76,-28.499 L 605,763 v 448 c 49.816,0 98.369,-1.74 147,-13.9 117.77,-29.43 222.115,-102.65 289,-204.1 36,-54.612 61.71,-118.141 71.27,-183 2.26,-15.292 2.86,-30.788 5.03,-46 0.64,-4.52 4.48,-13.406 -2.36,-14.772 C 1096.17,745.481 1073.17,749 1054,749 c -4.9,0 -16.42,-2.124 -20.4,1.028 -2.98,2.36 -1.89,11.408 -2.31,14.972 -1.71,14.423 -3.2,28.676 -5.9,43 -8.26,43.802 -25.611,87.367 -49.443,125 C 915.1,1029.08 811.144,1102.26 697,1117 V 833 757 L 698.028,728.39 712,721.449 751,706.856 908,647 955,629.05 970.292,621.722 963.692,600 943,541 c -58.391,19.032 -115.565,43.333 -173,65.064 -22.946,8.682 -48.759,23.305 -73,26.936 V 579 L 698.028,557.225 716,548.717 769,528.576 883,485.547 971,452 960.053,418 943,370 877,394.55 776,432.449 697,462 V 284 Z"
       id="path230" />
    <path
       style="fill:#ffffff;stroke-width:2"
       d="M 699,1399.7941 C 577.2791,1390.3876 472.59334,1354.5815 375.00542,1288.9769 232.07477,1192.8902 133.85039,1044.019 99.226598,871 90.670319,828.2433 89.083042,809.03214 89.146642,749 89.214083,685.3426 91.630223,661.42278 103.28803,609 134.89988,466.848 209.23162,341.78286 315.0688,252.6732 403.82122,177.94805 512.79338,125.30463 616.41668,107.09488 768.49324,80.370421 902.79774,99.070605 1034.8301,165.3536 c 124.5109,62.50708 224.8779,161.5296 286.4938,282.65612 35.4221,69.63378 56.0251,135.02262 68.0553,215.99028 5.0162,33.76046 4.9845,129.04646 -0.055,165 -20.4816,146.12926 -79.167,268.8162 -177.3244,370.7119 -105.2157,109.2228 -242.77934,178.6498 -389.08224,196.3659 -24.77498,3 -102.87702,5.3423 -123.91776,3.7163 z m 12,-193.7692 C 794.11606,1192.89 875.38296,1156.7661 941.91794,1103.3797 1033.0045,1030.2936 1098.0698,918.54518 1112.7376,810 c 7.897,-58.43992 7.8435,-57.62874 3.9879,-60.44804 -2.6285,-1.92204 -13.5089,-2.55738 -42.1053,-2.4587 -43.681,0.1508 -44.595,0.44854 -44.6568,14.5496 -0.1032,23.5568 -8.9147,66.6702 -20.1755,98.71718 C 967.1513,981.69872 852.1191,1082.9154 725,1110.9445 c -9.9,2.1829 -20.025,3.9884 -22.5,4.0122 L 698,1115 V 922.36774 729.73548 l 11.5,-5.31922 c 6.325,-2.92556 64.83742,-25.5759 130.0276,-50.3341 65.19016,-24.7582 121.67038,-46.62726 125.51158,-48.59792 l 6.984,-3.583 -13.64178,-39.9483 c -9.064,-26.54284 -14.66758,-40.14586 -16.69872,-40.53702 -1.68132,-0.32378 -14.67272,3.61128 -28.8698,8.74462 -29.30224,10.595 -152.08744,58.49892 -180.81288,70.54308 -10.45,4.38154 -22.375,8.59082 -26.5,9.35398 l -7.5,1.38756 0.0472,-36.72258 0.0472,-36.72258 10.45286,-4.6296 c 5.74908,-2.5463 63.55286,-24.7347 128.45286,-49.30756 144.7367,-54.80118 135.43134,-51.05404 134.27392,-54.0702 -0.52392,-1.36532 -2.80064,-8.6722 -5.05936,-16.23752 -4.23318,-14.1785 -21.59542,-62.80264 -22.88568,-64.0929 -0.3992,-0.3992 -55.7615,19.86422 -123.02734,45.02982 L 698,460.4477 V 371.72384 283 h -47 -47 v 105.69002 c 0,98.54374 -0.23918,105.9065 -3.53748,108.8914 -1.9456,1.76076 -15.2206,7.29216 -29.5,12.29198 C 556.68314,514.87324 517.1,529.589 483,542.57508 c -72.18134,27.48836 -67.65982,23.21268 -55.92454,52.88382 4.03328,10.1976 10.03638,26.6411 13.34024,36.5411 3.30384,9.9 6.23608,18.24918 6.51606,18.55374 0.27998,0.30456 35.40648,-12.54882 78.0589,-28.56308 42.6524,-16.01426 78.08782,-28.57884 78.74536,-27.9213 1.81602,1.81602 0.37186,71.62276 -1.52088,73.5155 C 600.714,669.086 560.45602,684.63352 458,723.28038 c -20.35,7.6761 -37.68972,14.63796 -38.5327,15.47078 -1.46292,1.4453 23.55254,77.39484 26.66732,80.96472 1.9368,2.21978 4.22438,1.45252 86.3803,-28.97236 C 570.74812,776.58458 602.47312,765 603.01492,765 603.55672,765 604,865.4811 604,988.29134 v 223.29136 l 43.5,-1.1986 c 23.925,-0.6592 52.5,-2.6208 63.5,-4.3592 z"
       id="path372" />
  </g>
</svg>
