<?xml version="1.0" standalone="no"?>
<!DOCTYPE svg PUBLIC "-//W3C//DTD SVG 20010904//EN"
 "http://www.w3.org/TR/2001/REC-SVG-20010904/DTD/svg10.dtd">
<svg version="1.0" xmlns="http://www.w3.org/2000/svg"
 width="1500.000000pt" height="1500.000000pt" viewBox="0 0 1500.000000 1500.000000"
 preserveAspectRatio="xMidYMid meet">

<g transform="translate(0.000000,1500.000000) scale(0.100000,-0.100000)"
fill="#000000" stroke="none">
<path d="M0 7500 l0 -7500 7500 0 7500 0 0 7500 0 7500 -7500 0 -7500 0 0
-7500z m7945 6540 c226 -20 460 -51 650 -86 2020 -367 3767 -1686 4680 -3536
371 -750 581 -1510 657 -2378 17 -192 17 -849 0 -1040 -33 -369 -88 -715 -167
-1035 -518 -2119 -2062 -3842 -4115 -4593 -541 -198 -1093 -318 -1720 -374
-192 -17 -848 -17 -1040 0 -876 79 -1627 286 -2378 657 -1401 691 -2515 1871
-3125 3309 -274 644 -434 1297 -499 2036 -17 191 -17 848 0 1040 76 868 286
1628 657 2378 744 1507 2042 2671 3625 3250 545 199 1148 329 1720 372 80 6
168 12 195 14 99 7 743 -3 860 -14z"/>
<path d="M6050 11095 l0 -1066 -47 -20 c-27 -12 -88 -36 -138 -55 -189 -70
-281 -105 -300 -114 -11 -6 -63 -25 -115 -45 -82 -29 -339 -127 -450 -170 -53
-21 -235 -90 -525 -200 -143 -54 -265 -102 -272 -107 -8 -6 -9 -17 -3 -31 14
-32 240 -683 240 -690 0 -3 9 -26 20 -51 l19 -45 38 14 c21 8 108 40 193 73
85 32 272 102 415 156 143 53 301 113 350 131 230 88 338 129 430 165 55 21
109 40 120 42 20 3 20 -3 23 -384 l2 -386 -57 -21 c-32 -12 -67 -26 -78 -31
-11 -5 -58 -23 -105 -40 -47 -17 -94 -35 -105 -40 -11 -5 -63 -25 -115 -44
-110 -40 -276 -103 -305 -115 -11 -5 -45 -18 -75 -29 -87 -33 -239 -92 -305
-117 -33 -13 -96 -37 -140 -54 -44 -16 -134 -51 -200 -76 -66 -25 -169 -64
-230 -87 -60 -22 -117 -44 -127 -49 -15 -8 -9 -29 47 -191 171 -491 217 -623
220 -626 4 -4 119 38 500 183 154 59 316 119 360 135 44 16 134 49 200 75 66
25 161 61 210 80 50 18 132 50 184 69 51 20 100 36 107 36 12 0 14 -355 14
-2241 l0 -2241 338 5 c350 5 473 15 757 62 669 111 1298 357 1875 733 468 305
923 738 1262 1204 506 693 811 1513 888 2393 6 66 13 141 16 167 5 43 4 48
-18 53 -12 3 -207 4 -433 3 l-410 -3 -12 -157 c-40 -533 -208 -1075 -481
-1558 -288 -510 -737 -992 -1238 -1327 -178 -120 -440 -265 -609 -338 -302
-131 -611 -224 -920 -280 -44 -8 -83 -15 -87 -15 -5 0 -8 877 -8 1948 l0 1949
43 18 c68 28 87 35 187 71 52 19 104 39 115 44 11 5 58 23 105 40 47 17 94 35
105 40 11 5 58 23 105 40 47 17 94 35 105 40 11 5 81 32 155 59 74 28 189 71
255 96 66 25 161 61 210 80 50 19 144 55 210 80 66 26 131 50 145 55 14 4 77
28 140 53 104 41 816 311 849 323 18 6 17 9 -94 324 -53 151 -114 325 -134
385 -28 80 -42 109 -53 107 -14 -2 -199 -71 -573 -214 -71 -27 -177 -67 -235
-88 -221 -80 -480 -178 -505 -190 -11 -6 -63 -25 -115 -44 -52 -20 -149 -56
-215 -81 -66 -25 -181 -68 -255 -96 -74 -27 -144 -54 -155 -59 -11 -5 -58 -23
-105 -40 -47 -17 -94 -35 -105 -40 -39 -18 -158 -60 -171 -60 -12 0 -14 62
-12 387 l3 387 100 39 c55 21 143 54 195 73 52 19 104 39 115 44 11 5 58 23
105 40 47 17 94 35 105 40 11 5 63 25 115 44 52 19 120 44 150 56 30 12 96 36
145 55 50 19 144 54 210 80 66 25 161 61 210 80 437 165 1278 487 1284 492 3
2 0 18 -7 36 -6 17 -45 131 -87 252 -143 412 -178 510 -185 518 -5 6 -496
-171 -620 -224 -14 -6 -115 -44 -225 -85 -110 -40 -254 -94 -320 -119 -187
-72 -322 -123 -420 -160 -49 -19 -115 -43 -145 -55 -80 -31 -219 -83 -345
-130 -60 -22 -119 -45 -130 -50 -27 -13 -238 -90 -247 -90 -5 0 -8 401 -8 890
l0 890 -460 0 -460 0 0 -1065z"/>
</g>
</svg>
